# File created by Blade
# Date/Time:  Tue Sep 30 19:11:40 2014
#---------------------------------------------------------
:version 1.10
:name HOM
:units
  mass 1.0
  length 1.000000
  angle deg
:documentation
     Acclaim Skeleton File
:root
   axis xyz
   order TX TY TZ RX RY RZ
   position 0.000000 0.000000 0.000000
   orientation 0 0 0
:bonedata
   begin
      id 1
      name Spine_dum
      direction 0.000000 1.000000 0.000000
      length 7.508948
      axis 0.0 0.0 0.0 xyz
   end
   begin
      id 2
      name LeftUpLeg_dum
      direction 1.000000 0.000000 0.000000
      length 3.000560
      axis 0.0 0.0 0.0 xyz
   end
   begin
      id 3
      name RightUpLeg_dum
      direction -1.000000 0.000000 0.000000
      length 3.000560
      axis 0.0 0.0 0.0 xyz
   end
   begin
      id 4
      name Spine
      direction 0.000000 1.000000 0.000000
      length 0.000000
      axis 0.0 0.0 0.0 xyz
      dof rx ry rz
   end
   begin
      id 5
      name Spine_dum1
      direction 0.000000 1.000000 0.000000
      length 13.861154
      axis 0.0 0.0 0.0 xyz
   end
   begin
      id 6
      name Spine_dum2
      direction 0.000000 1.000000 0.000000
      length 8.204781
      axis 0.0 0.0 0.0 xyz
   end
   begin
      id 7
      name Spine_dum3
      direction 0.000000 1.000000 0.000000
      length 8.204781
      axis 0.0 0.0 0.0 xyz
   end
   begin
      id 8
      name Head
      direction 0.000000 1.000000 0.000000
      length 4.527550
      axis 0.0 0.0 0.0 xyz
      dof rx ry rz
   end
   begin
      id 9
      name LeftShoulder
      direction 1.000000 0.000000 0.000000
      length 6.635956
      axis 0.0 0.0 -90.0 xyz
      dof rx ry rz
   end
   begin
      id 10
      name LeftArm
      direction 1.000000 0.000000 0.000000
      length 10.274218
      axis 0.0 0.0 -90.0 xyz
      dof rx ry rz
   end
   begin
      id 11
      name LeftForeArm
      direction 1.000000 0.000000 0.000000
      length 8.522147
      axis 0.0 0.0 -90.0 xyz
      dof ry rz rx
   end
   begin
      id 12
      name LeftHand
      direction 0.000000 0.000000 0.000000
      length 0.000000
      axis 0.0 0.0 -90.0 xyz
      dof rx ry rz
   end
   begin
      id 13
      name LeftHand_dum1
      direction 0.000000 0.000000 0.000000
      length 0.000000
      axis 0.0 0.0 -90.0 xyz
   end
   begin
      id 14
      name LeftHand_dum2
      direction 1.000000 0.000000 0.000000
      length 3.937000
      axis 0.0 0.0 -90.0 xyz
   end
   begin
      id 15
      name LeftHandThumb1
      direction 0.000000 0.000000 1.000000
      length 3.937000
      axis 0.0 0.0 -90.0 xyz
      dof rx rz ry
   end
   begin
      id 16
      name RightShoulder
      direction -1.000000 0.000000 0.000000
      length 6.635956
      axis 0.0 0.0 90.0 xyz
      dof rx ry rz
   end
   begin
      id 17
      name RightArm
      direction -1.000000 0.000000 0.000000
      length 10.274218
      axis 0.0 0.0 90.0 xyz
      dof rx ry rz
   end
   begin
      id 18
      name RightForeArm
      direction -1.000000 0.000000 0.000000
      length 8.522147
      axis 0.0 0.0 90.0 xyz
      dof ry rz rx
   end
   begin
      id 19
      name RightHand
      direction 0.000000 0.000000 0.000000
      length 0.000000
      axis 0.0 0.0 90.0 xyz
      dof rx ry rz
   end
   begin
      id 20
      name RightHand_dum1
      direction 0.000000 0.000000 0.000000
      length 0.000000
      axis 0.0 0.0 90.0 xyz
   end
   begin
      id 21
      name RightHand_dum2
      direction -1.000000 0.000000 0.000000
      length 3.937000
      axis 0.0 0.0 90.0 xyz
   end
   begin
      id 22
      name RightHandThumb1
      direction 0.000000 0.000000 1.000000
      length 3.937000
      axis 0.0 0.0 90.0 xyz
      dof rx rz ry
   end
   begin
      id 23
      name LeftUpLeg
      direction 0.000000 -1.000000 0.000000
      length 16.490845
      axis 0.0 0.0 0.0 xyz
      dof rx ry rz
   end
   begin
      id 24
      name LeftLeg
      direction 0.000000 -1.000000 0.000000
      length 14.556576
      axis 0.0 0.0 0.0 xyz
      dof rx ry rz
   end
   begin
      id 25
      name LeftFoot
      direction 0.000000 -0.258819 0.965926
      length 4.831116
      axis 15.0 0.0 0.0 xyz
      dof rx ry rz
   end
   begin
      id 26
      name LeftToeBase
      direction 0.000000 0.000000 1.000000
      length 2.952750
      axis 0.0 0.0 0.0 xyz
      dof rx ry rz
   end
   begin
      id 27
      name RightUpLeg
      direction 0.000000 -1.000000 0.000000
      length 16.490845
      axis 0.0 0.0 0.0 xyz
      dof rx ry rz
   end
   begin
      id 28
      name RightLeg
      direction 0.000000 -1.000000 0.000000
      length 14.556576
      axis 0.0 0.0 0.0 xyz
      dof rx ry rz
   end
   begin
      id 29
      name RightFoot
      direction 0.000000 -0.258819 0.965926
      length 4.831116
      axis 15.0 0.0 0.0 xyz
      dof rx ry rz
   end
   begin
      id 30
      name RightToeBase
      direction 0.000000 0.000000 1.000000
      length 2.952750
      axis 0.0 0.0 0.0 xyz
      dof rx ry rz
   end
:hierarchy
   begin
      root Spine_dum LeftUpLeg_dum RightUpLeg_dum
      Spine_dum Spine
      LeftUpLeg_dum LeftUpLeg
      RightUpLeg_dum RightUpLeg
      Spine Spine_dum1 Spine_dum2 Spine_dum3
      Spine_dum1 Head
      Spine_dum2 LeftShoulder
      Spine_dum3 RightShoulder
      LeftShoulder LeftArm
      LeftArm LeftForeArm
      LeftForeArm LeftHand
      LeftHand LeftHand_dum1 LeftHand_dum2
      LeftHand_dum1 LeftHandThumb1
      RightShoulder RightArm
      RightArm RightForeArm
      RightForeArm RightHand
      RightHand RightHand_dum1 RightHand_dum2
      RightHand_dum1 RightHandThumb1
      LeftUpLeg LeftLeg
      LeftLeg LeftFoot
      LeftFoot LeftToeBase
      RightUpLeg RightLeg
      RightLeg RightFoot
      RightFoot RightToeBase
   end

# File created by Blade
# Date/Time:  Thu Sep 25 15:41:58 2014
# Frame Rate: 120.000 fps
#------------------------------------------------------
:FULLY-SPECIFIED
:DEGREES
113
root 2.660343 32.110901 1.077338 5.521617 -52.566553 5.329819
Spine -5.386772 -3.639820 1.671611
Head 10.437876 -32.988533 3.335894
LeftShoulder -10.049352 22.898909 12.504922
LeftArm 36.289448 22.211976 -64.230241
LeftForeArm 7.744807 -0.000000 26.567845
LeftHand -26.137599 -0.000000 1.824398
LeftHandThumb1 -26.253704 0.000000 33.147579
RightShoulder -19.776355 4.374459 -25.256247
RightArm -16.966169 -26.478273 91.220811
RightForeArm -21.235290 -0.000000 19.952861
RightHand -3.934159 -0.000000 4.936789
RightHandThumb1 -24.326973 -0.000000 -32.862282
LeftUpLeg -6.871462 -16.594219 12.770810
LeftLeg 31.552920 -0.000000 -0.000000
LeftFoot 1.216331 -10.791613 -28.576794
LeftToeBase -11.024393 -0.000000 0.000000
RightUpLeg -26.341588 16.614287 -22.372541
RightLeg 25.798849 -0.000000 -0.000000
RightFoot -12.610969 20.885029 -3.883902
RightToeBase -12.309824 -0.000000 0.000000
114
root 2.913757 32.060697 1.149682 5.532229 -53.142543 5.303693
Spine -5.231410 -3.645676 1.617507
Head 10.232415 -32.931934 3.539124
LeftShoulder -9.954317 22.828450 12.704729
LeftArm 36.630480 22.293258 -63.942752
LeftForeArm 7.613823 -0.000000 26.541847
LeftHand -26.078409 0.000000 2.241883
LeftHandThumb1 -26.253704 0.000000 33.147579
RightShoulder -19.683299 4.490532 -25.259790
RightArm -16.899217 -26.723463 91.417172
RightForeArm -21.120728 -0.000000 20.171027
RightHand -3.920039 -0.000000 4.685735
RightHandThumb1 -24.326973 -0.000000 -32.862282
LeftUpLeg -6.835606 -16.807917 12.474362
LeftLeg 31.371491 -0.000000 -0.000000
LeftFoot 1.019789 -11.245517 -26.816765
LeftToeBase -15.957850 -0.000000 0.000000
RightUpLeg -27.042111 16.578531 -22.829866
RightLeg 26.144455 -0.000000 -0.000000
RightFoot -12.056651 21.352244 -3.629885
RightToeBase -12.960858 -0.000000 0.000000
115
root 3.171726 32.008327 1.223789 5.535725 -53.712906 5.263333
Spine -5.034209 -3.630718 1.565053
Head 9.961135 -32.853458 3.798765
LeftShoulder -9.837465 22.784810 12.856440
LeftArm 37.021256 22.355511 -63.553519
LeftForeArm 7.652596 -0.000000 26.601280
LeftHand -26.444668 0.000000 2.578269
LeftHandThumb1 -26.253704 0.000000 33.147579
RightShoulder -19.638753 4.582173 -25.224015
RightArm -16.782554 -26.874795 91.545110
RightForeArm -21.033008 0.000000 20.489884
RightHand -4.173172 -0.000000 4.378136
RightHandThumb1 -24.326973 -0.000000 -32.862282
LeftUpLeg -6.820643 -16.951470 12.176271
LeftLeg 31.358724 -0.000000 -0.000000
LeftFoot 1.005845 -11.664007 -25.747971
LeftToeBase -19.730179 -0.000000 0.000000
RightUpLeg -27.709543 16.502488 -23.250142
RightLeg 26.463110 -0.000000 -0.000000
RightFoot -11.513316 21.748525 -3.489213
RightToeBase -13.683372 -0.000000 0.000000
116
root 3.442991 31.952179 1.298985 5.528979 -54.285998 5.231293
Spine -4.778757 -3.623808 1.529957
Head 9.630784 -32.770319 4.042230
LeftShoulder -9.683768 22.606298 13.031489
LeftArm 37.233337 22.382788 -63.317363
LeftForeArm 7.773069 -0.000000 26.633381
LeftHand -26.357970 0.000000 2.872021
LeftHandThumb1 -26.253704 0.000000 33.147579
RightShoulder -19.496102 4.652344 -25.171651
RightArm -16.638627 -26.785651 91.574071
RightForeArm -21.309252 -0.000000 20.943342
RightHand -4.339687 0.000000 4.188944
RightHandThumb1 -24.326973 -0.000000 -32.862282
LeftUpLeg -6.850622 -16.984737 11.823821
LeftLeg 31.553962 -0.000000 -0.000000
LeftFoot 0.668481 -11.670663 -24.962684
LeftToeBase -23.521988 -0.000000 0.000000
RightUpLeg -28.370932 16.504926 -23.723347
RightLeg 26.708808 -0.000000 -0.000000
RightFoot -10.930831 22.146890 -3.245434
RightToeBase -14.377391 -0.000000 0.000000
117
root 3.717749 31.891577 1.373891 5.547635 -54.859448 5.136278
Spine -4.490541 -3.668565 1.537662
Head 9.311429 -32.644114 4.256640
LeftShoulder -9.513848 22.380492 13.229459
LeftArm 37.351807 22.342337 -63.192387
LeftForeArm 8.026118 0.000000 26.590580
LeftHand -26.159680 0.000000 2.735697
LeftHandThumb1 -26.253704 0.000000 33.147579
RightShoulder -19.345584 4.816230 -25.183478
RightArm -16.540636 -26.855151 91.685546
RightForeArm -21.124018 -0.000000 21.320230
RightHand -4.320245 0.000000 3.721376
RightHandThumb1 -24.326973 -0.000000 -32.862282
LeftUpLeg -6.855488 -16.914250 11.469542
LeftLeg 31.774461 -0.000000 -0.000000
LeftFoot -0.187101 -11.747122 -24.199245
LeftToeBase -24.794489 -0.000000 0.000000
RightUpLeg -29.009710 16.497508 -24.145182
RightLeg 26.934659 -0.000000 -0.000000
RightFoot -10.346979 22.509330 -3.032219
RightToeBase -14.984416 -0.000000 0.000000
118
root 3.994521 31.828611 1.451539 5.578487 -55.440845 4.990562
Spine -4.157989 -3.667757 1.556127
Head 8.962966 -32.533118 4.561401
LeftShoulder -9.331064 22.265712 13.428052
LeftArm 37.633702 22.330069 -62.993656
LeftForeArm 7.998130 -0.000000 26.548293
LeftHand -26.316280 -0.000000 3.095277
LeftHandThumb1 -26.253704 0.000000 33.147579
RightShoulder -19.337216 4.907511 -25.161652
RightArm -16.310324 -26.985440 91.702230
RightForeArm -21.327223 -0.000000 21.728669
RightHand -4.334376 -0.000000 3.389086
RightHandThumb1 -24.326973 -0.000000 -32.862282
LeftUpLeg -6.820004 -16.797847 11.096054
LeftLeg 31.956327 -0.000000 -0.000000
LeftFoot -1.398176 -11.830073 -23.749584
LeftToeBase -25.852110 -0.000000 0.000000
RightUpLeg -29.598722 16.491937 -24.524757
RightLeg 27.095877 -0.000000 -0.000000
RightFoot -9.699254 22.896562 -2.787409
RightToeBase -15.701251 -0.000000 0.000000
119
root 4.278465 31.763556 1.526235 5.655478 -56.000310 4.769239
Spine -3.767714 -3.709854 1.622632
Head 8.571740 -32.390035 4.891382
LeftShoulder -9.127922 22.033127 13.618166
LeftArm 37.763402 22.406826 -62.814399
LeftForeArm 7.997735 -0.000000 26.565173
LeftHand -26.228368 -0.000000 3.577147
LeftHandThumb1 -26.253704 0.000000 33.147579
RightShoulder -19.293481 5.043730 -25.133229
RightArm -16.103882 -27.057949 91.694853
RightForeArm -21.241695 0.000000 22.237673
RightHand -4.453776 -0.000000 3.107714
RightHandThumb1 -24.326973 -0.000000 -32.862282
LeftUpLeg -6.807009 -16.639581 10.755784
LeftLeg 32.169242 -0.000000 -0.000000
LeftFoot -2.864081 -11.960899 -23.614641
LeftToeBase -26.729714 -0.000000 0.000000
RightUpLeg -30.139181 16.536030 -24.879837
RightLeg 27.174229 -0.000000 -0.000000
RightFoot -8.961039 23.205171 -2.378092
RightToeBase -16.165986 -0.000000 0.000000
120
root 4.563364 31.696866 1.602188 5.703354 -56.573634 4.535110
Spine -3.318751 -3.785219 1.671987
Head 8.163146 -32.192682 5.268345
LeftShoulder -8.995080 21.918121 13.792590
LeftArm 38.080477 22.444958 -62.565211
LeftForeArm 7.837663 -0.000000 26.450362
LeftHand -26.166151 -0.000000 4.067553
LeftHandThumb1 -26.253704 0.000000 33.147579
RightShoulder -19.238520 5.179002 -25.065566
RightArm -15.846019 -27.139689 91.625378
RightForeArm -21.444572 0.000000 22.795876
RightHand -4.558819 -0.000000 3.045834
RightHandThumb1 -24.326973 -0.000000 -32.862282
LeftUpLeg -6.724146 -16.493499 10.380841
LeftLeg 32.395579 -0.000000 -0.000000
LeftFoot -4.597237 -11.853193 -23.327077
LeftToeBase -26.578739 -0.000000 0.000000
RightUpLeg -30.615245 16.628181 -25.225840
RightLeg 27.167240 -0.000000 -0.000000
RightFoot -8.244910 23.500493 -1.999001
RightToeBase -16.818278 -0.000000 0.000000
121
root 4.827433 31.629089 1.668156 5.947732 -57.131360 3.939491
Spine -2.759068 -3.846825 1.915237
Head 7.833214 -32.051536 5.571334
LeftShoulder -8.861234 21.874045 13.922837
LeftArm 38.470309 22.467430 -62.273677
LeftForeArm 7.734963 -0.000000 26.315844
LeftHand -25.869434 -0.000000 4.427669
LeftHandThumb1 -26.253704 0.000000 33.147579
RightShoulder -19.142081 5.332460 -24.991305
RightArm -15.675132 -27.114822 91.550581
RightForeArm -21.623670 -0.000000 23.453319
RightHand -4.507727 -0.000000 2.536566
RightHandThumb1 -24.326973 -0.000000 -32.862282
LeftUpLeg -6.454837 -16.374979 10.208788
LeftLeg 32.524805 -0.000000 -0.000000
LeftFoot -6.375047 -11.927914 -23.342093
LeftToeBase -25.183794 -0.000000 0.000000
RightUpLeg -30.949982 16.831335 -25.313220
RightLeg 27.087760 -0.000000 -0.000000
RightFoot -7.557146 23.674984 -1.809038
RightToeBase -17.562098 -0.000000 0.000000
